<?xml version="1.0" encoding="UTF-8"?>
<svg width="456px" height="269px" viewBox="0 0 456 269" version="1.1" xmlns="http://www.w3.org/2000/svg" xmlns:xlink="http://www.w3.org/1999/xlink">
  <g fill="none" fill-rule="evenodd">
    <path fill="#25242F" fill-rule="nonzero" d="M417.797987 169.2c.666449 0 .999669.298367.999669.895111V183.192c0 .502521-.206279.777333-.618843.824444-.412564.047112-.714048-.18059-.904463-.683111-.126942-.282668-.349089-.761626-.666446-1.436889-.317357-.675262-.76165-1.436884-1.332892-2.284888-.571243-.848005-1.269418-1.719552-2.094546-2.614667-.825128-.895116-1.793052-1.719552-2.903801-2.473333-1.11075-.753782-2.356357-1.374072-3.73686-1.860889-1.380503-.486818-2.927595-.730223-4.641322-.730223-.793393 0-1.443965.117777-1.951736.353334-.507771.235557-.912395.549627-1.213884.942222s-.515702.855849-.642645 1.389778c-.126943.533928-.206281 1.083553-.238016 1.648889v47.770666c0 1.476156.317352 2.669625.952066 3.580445.634714.910819 1.372558 1.633182 2.213554 2.167111.840995.533928 1.674045.902962 2.499173 1.107111.825128.204149 1.428097.337629 1.808926.400444.285621.062816.499834.17274.642644.329778.142811.157038.206281.321925.190414.494667-.015868.172741-.10314.329777-.261819.471111-.158678.141334-.396692.212-.714049.212h-30.370909c-.317357 0-.555371-.070666-.71405-.212-.158678-.141334-.24595-.29837-.261818-.471111-.015868-.172742.047603-.337629.190413-.494667.142811-.157038.357024-.266962.642645-.329778.380828-.062815.983797-.196295 1.808925-.400444.825128-.204149 1.658178-.573183 2.499174-1.107111.840996-.533929 1.57884-1.256292 2.213554-2.167111.634714-.91082.952066-2.104289.952066-3.580445v-14.227555c0-2.512605.007934-5.095839.023801-7.749778.015868-2.653939.023802-5.276431.023802-7.867556v-15.805777c0-.785189-.023801-1.562515-.071405-2.332-.047603-.769486-.198346-1.460442-.452231-2.072889-.253886-.612448-.65851-1.107109-1.213885-1.484-.555374-.376891-1.340821-.565334-2.356363-.565334-1.713728 0-3.268754.243405-4.665124.730223-1.396371.486817-2.641978 1.107107-3.73686 1.860889-1.094881.753781-2.054872 1.578217-2.88 2.473333-.825128.895115-1.523303 1.766662-2.094545 2.614667-.571243.848004-1.02347 1.609626-1.356694 2.284888-.333225.675263-.547438 1.154221-.642645 1.436889-.190414.502521-.491899.730223-.904463.683111-.412564-.047111-.618843-.321923-.618843-.824444v-13.096889c0-.596744.33322-.895111.99967-.895111h55.600661zm-87.015228 29.049969v-.353291c0 .188423.070109.35329.210331.494607.140221.141317.30381.211975.490772.211975h5.982743c1.402212 0 2.547335-.28263 3.435403-.847898.888068-.565268 1.589164-1.224737 2.103309-1.978428.514144-.75369.880272-1.499519 1.098394-2.237508.218122-.737988.358341-1.295397.420661-1.672242.031161-.251231.13243-.4318.303812-.541713.171381-.109913.34276-.157018.514142-.141316.171381.015702.32718.09421.467401.235527.140222.141317.210331.337588.210331.588818v16.015845c0 .25123-.070109.447501-.210331.588818-.140221.141317-.29602.219825-.467401.235527-.171382.015702-.342761-.031403-.514142-.141316-.171382-.109913-.272651-.290482-.303812-.541712-.06232-.376846-.202539-.934254-.420661-1.672243-.218122-.737989-.58425-1.483817-1.098394-2.237508-.514145-.753691-1.215241-1.41316-2.103309-1.978428-.888068-.565268-2.033191-.847898-3.435403-.847898h-5.982743c-.186962 0-.350551.070658-.490772.211975-.140222.141317-.210331.306184-.210331.494607v-.706582 21.715602c0 2.229668.965954 3.925447 2.897891 5.087387 1.931937 1.161939 4.674001 1.7429 8.226272 1.7429 1.682655 0 3.217276-.227674 4.603908-.683028 1.386633-.455355 2.633025-1.028465 3.739215-1.719348 1.10619-.690883 2.072144-1.468115 2.897891-2.331719.825747-.863604 1.526843-1.687941 2.103308-2.473035.576465-.785094 1.028283-1.49952 1.355466-2.143297.327182-.643777.553091-1.106976.677732-1.38961.186962-.50246.48298-.730134.888064-.683029.405083.047106.607622.321885.607622.824345v12.530044c0 .596672-.327178.895003-.981544.895003h-49.638073c-.311603 0-.545302-.070657-.701103-.211974-.155801-.141317-.241491-.298334-.257071-.471055-.01558-.17272.04674-.337588.186961-.494607.140221-.157019.35055-.26693.630992-.329738.373924-.062807.96596-.196271 1.776127-.400396.810167-.204124 1.628112-.573113 2.45386-1.106977.825747-.533865 1.550213-1.256141 2.173418-2.16685.623206-.910709.934804-2.104035.934804-3.580012v-46.069108c0-1.444574-.311598-2.630049-.934804-3.55646-.623205-.926412-1.347671-1.648688-2.173418-2.16685-.825748-.518162-1.643693-.887151-2.45386-1.106977-.810167-.219827-1.402203-.361142-1.776127-.423949-.280442-.031404-.490771-.133465-.630992-.306185-.140221-.172721-.202541-.345439-.186961-.51816.01558-.172721.10127-.329737.257071-.471054.155801-.141317.3895-.211975.701103-.211975L357.798584 169.2c.654366 0 .981544.298331.981544.895003v13.150271c0 .471056-.186959.730134-.560882.777239-.373923.047106-.685522-.149165-.934804-.588817-.100581-.21963-2.118452-5.463844-6.575009-8.607306-4.129805-3.15211-9.099915-2.931908-10.064496-2.931908-1.464533 0-2.804404.125614-4.019655.376844-1.215251.25123-2.251315.651622-3.108222 1.201188-.856908.549566-1.526844 1.256141-2.009828 2.119745-.482985.863603-.724473 1.907763-.724473 3.13251v19.5252zm-27.365899 28.596185c.343106-.123077.686207-.100001 1.029313.069231.343106.169231.436679.546151.280722 1.130769-.187149.707696-.584834 1.407689-1.193068 2.1-.608233.692312-1.38021 1.330766-2.315954 1.915384-.935743.584618-1.996237 1.053844-3.181512 1.407692-1.185276.353848-2.464106.53077-3.83653.53077-1.154084 0-2.308151-.107692-3.462234-.323077-1.154084-.215386-2.245769-.584613-3.275087-1.107693-1.029318-.523079-1.972845-1.21538-2.83061-2.076922-.857765-.861543-1.56736-1.938456-2.128807-3.23077-.467872-1.107698-.826568-2.376916-1.0761-3.807692-.249531-1.430777-.452273-3.069221-.60823-4.915384-.21834-2.369243-.483463-5.5923-.795378-7.269231-.311915-1.676932-.655015-3.061533-1.029313-4.153846-.374297-1.092314-.787578-1.953843-1.239854-2.584616-.452276-.630772-.912343-1.099998-1.380215-1.407692-.467872-.307694-.935737-.5-1.403609-.576923-.467871-.076924-.920141-.115385-1.356821-.115385-.530255 0-.974727.092307-1.333428.276923-.358702.184617-.647219.430768-.865559.738462-.21834.307694-.374295.63846-.467869.992308-.093575.353847-.140361.684613-.140361.992307v18.692308c0 1.446161.31191 2.61538.935739 3.507693.623829.892312 1.349019 1.599996 2.175593 2.123076.826574.523079 1.645337.884615 2.456315 1.084616.810978.200001 1.403606.330769 1.777904.392308.280723.061538.491262.169229.631624.323076.140361.153847.202743.315384.187148.484616-.015596.169232-.101371.323076-.257329.461538-.155957.138462-.389889.207692-.701804.207692h-29.850074c-.311915 0-.545847-.06923-.701804-.207692-.155958-.138462-.241733-.292306-.257329-.461538-.015595-.169232.046787-.330769.187148-.484616.140362-.153847.350901-.261538.631624-.323076.374297-.061539.966926-.192307 1.777904-.392308.810978-.200001 1.629741-.561537 2.456315-1.084616.826574-.52308 1.551764-1.230764 2.175593-2.123076.623829-.892313.935739-2.061532.935739-3.507693v-46.338462c0-1.415391-.31191-2.576918-.935739-3.484615-.623829-.907697-1.349019-1.615382-2.175593-2.123077-.826574-.507695-1.645337-.86923-2.456315-1.084615-.810978-.215386-1.403607-.353846-1.777904-.415385-.280723-.030769-.491262-.130768-.631624-.3-.140361-.169232-.202743-.338461-.187148-.507692.015596-.169232.101371-.323076.257329-.461539.155957-.138462.389889-.207692.701804-.207692h29.850074c.311915 0 .545847.06923.701804.207692.155958.138463.241733.292307.257329.461539.015595.169231-.046787.33846-.187148.507692-.140362.169232-.350901.269231-.631624.3-.374298.061539-.966926.199999-1.777904.415385-.810978.215385-1.629741.57692-2.456315 1.084615-.826574.507695-1.551764 1.21538-2.175593 2.123077-.623829.907697-.935739 2.069224-.935739 3.484615v18.876923c0 .861543.132561 1.576921.397689 2.146154.265127.569234.771981.853846 1.520576.853846.499063 0 .943535-.099999 1.333428-.3.389893-.200001.756387-.476921 1.099493-.830769s.678409-.77692 1.00592-1.269231c.32751-.49231.678408-1.04615 1.052706-1.661538.249532-.400002.67061-1.099995 1.263248-2.1.592637-1.000005 1.271041-2.15384 2.035232-3.461538.764191-1.307699 1.567359-2.699993 2.409528-4.176924.842169-1.47693 1.637539-2.915377 2.386134-4.315384.748595-1.400007 1.419202-2.676917 2.011839-3.830769.592638-1.153852 1.029312-2.053843 1.310035-2.7.405489-.984621.491264-1.753844.257328-2.307693-.233936-.553849-.608228-.969229-1.122887-1.246154-.514659-.276924-1.076097-.461538-1.68433-.553846-.608233-.092308-1.099491-.16923-1.473789-.230769-.280723-.030769-.491262-.130768-.631624-.3-.140361-.169232-.202743-.338461-.187148-.507692.015596-.169232.101371-.323076.257329-.461539.155957-.138462.389889-.207692.701804-.207692h19.052254c.311915 0 .545847.06923.701805.207692.155957.138463.241732.299999.257328.484616.015595.184616-.046787.353845-.187149.507692-.140361.153847-.3509.246154-.631623.276923-.467872.061539-1.7805.146153-2.497904.253846-.717403.107693-1.841583.33846-2.652561.692308-.810978.353848-1.893134.869227-2.766495 1.546154-.873361.676926-1.684327 1.599994-2.432921 2.769231-.530255.769234-1.232052 1.838454-2.105413 3.207692-.873361 1.369237-1.824686 2.853838-2.854004 4.453846-1.029318 1.600008-2.074216 3.223069-3.134726 4.869231-1.060509 1.646162-2.02743 3.146147-2.900791 4.5s-1.598551 2.476918-2.175593 3.369231c-.577042.892312-.881154 1.384614-.912345 1.476923-.124766.215385-.132564.361538-.023394.438461.10917.076924.257327.1.444476.069231.280723-.030769.584835-.046154.912346-.046154h1.005919c1.27885 0 2.55768.123076 3.83653.369231 1.27885.246155 2.495298.646151 3.649382 1.2 1.154084.553849 2.214578 1.276918 3.181513 2.169231.966935.892312 1.809092 1.984609 2.526495 3.276923.623829 1.169236 1.068301 2.615376 1.333428 4.338461.265127 1.723086.444476 4.753837.53805 6.692308.093574 2.123088.218338 3.884608.374296 5.284615.155957 1.400007.42108 2.499996.795378 3.3.280723.646157.647217 1.130767 1.099493 1.453846.452276.323079.927939.546154 1.427002.669232.499063.123077.998119.161538 1.497182.115384.499064-.046154.935738-.146153 1.310035-.3zm-60.022443-.134978c.380001-.1254.736246-.101887 1.068746.070537.3325.172425.419583.556456.261249 1.152105-.19.721048-.593744 1.434248-1.211245 2.139621-.617501.705374-1.393323 1.355875-2.327491 1.951524-.934167.595649-2.002903 1.073729-3.206237 1.434253-1.203335.360525-2.50165.540784-3.894985.540784-1.171667 0-2.343318-.109724-3.514986-.329173-1.171667-.21945-2.287902-.595643-3.348736-1.128592-1.060835-.532949-2.018738-1.238312-2.873739-2.11611-.855001-.877798-1.567491-1.97503-2.137491-3.291727-.506668-1.128598-.894579-2.421764-1.163746-3.879536-.269167-1.457773-.482914-3.127131-.641247-5.008127-.316667-3.636593-.783744-6.512907-1.401245-8.629028-.6175-2.116121-1.32999-3.714944-2.137491-4.796517-.807501-1.081573-1.670406-1.763424-2.58874-2.045573-.918334-.28215-1.804988-.423222-2.659989-.423222-1.076668 0-1.820824.203771-2.232491.611321-.411667.407549-.617498 1.112912-.617498 2.11611v18.976894c0 1.473447.316662 2.664727.949996 3.573876.633334.909148 1.369574 1.630185 2.208741 2.163134.839168.532949 1.670407.901305 2.493741 1.10508.823334.203775 1.424993.337009 1.804993.399709.285.0627.498746.172424.641246.329173.142501.15675.205833.321335.19.49376-.015833.172424-.102915.329171-.261248.470246-.158334.141075-.395831.211612-.712498.211612h-30.304879c-.316667 0-.554164-.070537-.712498-.211612-.158333-.141075-.245415-.417822-.261249-.590247-.015833-.172424.047499-.217009.189999-.373759.1425-.156749.356248-.266473.641248-.329173.38-.0627.981659-.195934 1.804993-.399709.823334-.203775 1.654573-.572131 2.49374-1.10508.839168-.532949 1.575407-1.253986 2.208741-2.163134.633334-.909149.949997-2.100429.949997-3.573876l-.000001-46.110131c0-1.442097-.316662-2.625539-.949996-3.550363-.633334-.924823-1.369573-1.645861-2.208741-2.163135-.839168-.517274-1.670406-.88563-2.49374-1.105079-.823334-.21945-1.424992-.360523-1.804993-.423222-.285-.03135-.498747-.133236-.641247-.305661-.1425-.172424-.205833-.344847-.19-.517271.015834-.172425.102916-.329172.261249-.470247.158334-.141075.395831-.211611.712498-.211611h29.259883c1.805002 0 3.586227.015675 5.343729.047025 1.757502.03135 3.467478.188097 5.12998.470246 1.662501.28215 3.277479.752392 4.84498 1.410741 1.567502.658348 3.079564 1.614507 4.536232 2.868505 1.171668 1.034548 2.129571 2.265014 2.873739 3.691437.744167 1.426422 1.26666 2.923359 1.567494 4.490856.300833 1.567497.364166 3.16632.189999 4.796517-.174167 1.630196-.593745 3.150646-1.258745 4.561393-1.140001 2.507995-2.628314 4.443825-4.464982 5.807547-1.836669 1.363722-4.037472 2.406092-6.602474 3.127141-.253334.0627-.395832.164585-.427498.30566-.031667.141075.063331.227286.284998.258636l1.329995.329173c.633334.156749 1.345824.415382 2.137492.775907.791667.360524 1.583323.854278 2.37499 1.481277.791668.626999 1.456658 1.410735 1.994992 2.351234.665001 1.159947 1.132078 2.625535 1.401245 4.396807.269167 1.771271.435414 2.444402.498748 4.419448.126666 2.163146.261248 5.157903.403748 6.584325.1425 1.426422.403747 2.547166.783747 3.362264.285.658349.657078 1.152103 1.116245 1.481278.459168.329174.942078.556458 1.448745.681858.506667.1254 1.013326.164586 1.519994.117561.506667-.047025.949994-.14891 1.329994-.30566zm-33.534866-27.086212c.823334 0 1.733738-.03135 2.731239-.09405.997501-.0627 1.994987-.242959 2.992488-.540783.997501-.297825 1.963321-.768067 2.897488-1.410741.934168-.642673 1.75749-1.551808 2.469991-2.727431.7125-1.175622 1.282492-2.656885 1.709993-4.443831.4275-1.786947.641247-3.98141.641247-6.583455 0-2.257195-.174164-4.146001-.522498-5.666473-.348333-1.520472-.847076-2.743101-1.496244-3.667924-.649167-.924823-1.440823-1.591-2.37499-1.998549-.934168-.407549-1.98707-.611321-3.158738-.611321-1.045001 0-1.994987.133236-2.849988.39971-.855001.266475-1.591241.69753-2.208742 1.293179-.6175.595648-1.092494 1.348036-1.424994 2.257184-.3325.909148-.498748 2.022054-.498748 3.338752v19.42119c0 .689699.364162 1.034543 1.092496 1.034543zm-28.057781 31.675179c.240798.060601.406344.16665.496644.318151.090299.151502.120398.318151.090299.499953-.0301.181802-.120398.340876-.270897.477227s-.361194.204526-.632092.204526h-28.353842c-.210698 0-.383769-.0606-.519218-.181801-.135449-.121201-.225747-.265125-.270897-.431777-.045149-.166652-.01505-.325726.090299-.477227.10535-.151502.30852-.272701.609518-.363602.300997-.090901.83526-.25755 1.602804-.499952.767544-.242403 1.504978-.643875 2.212322-1.204431.707345-.560555 1.256658-1.310476 1.647955-2.249785.391297-.93931.346148-2.136153-.135449-3.590567-.150499-.393904-.353669-.984751-.609517-1.772559-.255848-.787807-.534267-1.658928-.835264-2.613387-.300998-.954459-.624566-1.939204-.970713-2.954264-.346148-1.01506-.654666-1.954355-.925564-2.817913-.270897-.863559-.511692-1.59833-.72239-2.204336-.210699-.606005-.331096-.969604-.361196-1.090805-.090299-.272702-.255845-.409052-.496644-.409052h-19.459403c-.270898 0-.451494.1212-.541794.363602-.120399.363604-.308519.9696-.564367 1.818009-.255849.848408-.549317 1.802853-.880414 2.863363-.331098 1.06051-.669715 2.17403-1.015863 3.340591-.346147 1.166561-.669715 2.24978-.970712 3.24969-.300998.99991-.564367 1.87103-.790115 2.613387-.225749.742358-.353671 1.21958-.38377 1.431682-.240799 1.121111-.188125 2.030106.158023 2.727013.346147.696907.820211 1.249879 1.422207 1.658933.601995.409054 1.24913.704477 1.941425.886279.692295.181802 1.264182.333301 1.715678.454502.270898.060601.451494.174225.541794.340877.090299.166651.120398.3333.090298.499952-.030099.166652-.120397.310576-.270896.431777-.150499.121201-.331095.181801-.541793.181801h-16.705289c-.240798 0-.428919-.0606-.564368-.181801-.135449-.121201-.210697-.25755-.225747-.409052-.01505-.151501.030099-.310575.135448-.477227.105349-.166652.27842-.280276.519219-.340877.782594-.212102 1.550126-.46965 2.30262-.772653.752495-.303003 1.452304-.689326 2.099449-1.158981.647145-.469654 1.234082-1.037776 1.760828-1.704383.526746-.666606.970711-1.454402 1.331908-2.363411.180598-.454504.57189-1.537724 1.173885-3.24969.601995-1.711967 1.339429-3.817806 2.212322-6.31758.872893-2.499774 1.836072-5.264635 2.889563-8.294664 1.053492-3.030029 2.114493-6.097888 3.183035-9.203668 1.068542-3.10578 2.114493-6.135764 3.137886-9.090043 1.023392-2.954279 1.926371-5.58279 2.708965-7.885612.782594-2.302823 1.422205-4.166263 1.918851-5.590377.496646-1.424113.760015-2.181609.790115-2.27251.120399-.333304.270896-.590852.451494-.772654.180599-.181802.466542-.303001.857839-.363602.662195-.121201 1.429728-.28785 2.302621-.499952.872894-.212102 1.768348-.439351 2.686391-.681753.918043-.242403 1.828548-.507526 2.731541-.795379.902993-.287853 1.730724-.598426 2.483218-.931729.511697-.242403.880413-.303002 1.106161-.181801.225749.121201.413869.3636.564368.727203.0301.090901.278419.848397.744966 2.272511.466546 1.424114 1.083582 3.279979 1.851127 5.567651.767544 2.287672 1.632899 4.901034 2.596092 7.840162.963192 2.939129 1.963995 5.969113 3.002437 9.090043 1.038442 3.12093 2.069343 6.226664 3.092736 9.317294 1.023392 3.09063 1.963995 5.923665 2.821839 8.49919.857843 2.575525 1.587752 4.794988 2.189747 6.658456.601996 1.863468 1.023386 3.128487 1.264184 3.795093.451497 1.302913.98576 2.431582 1.602805 3.386041.617045.954459 1.29428 1.772555 2.031724 2.454311.737445.681757 1.512502 1.219579 2.325196 1.613483.812694.393904 1.655475.666602 2.528368.818104zm-47.090855-24.906717c-.150498.393903-.030101.590852.361196.590852h17.201932c.361198 0 .481595-.181799.361196-.545402-.0301-.090901-.173072-.537824-.42892-1.340781-.255848-.802958-.594465-1.833153-1.015862-3.090615s-.887936-2.67398-1.399632-4.249595c-.511696-1.575615-1.038434-3.173932-1.58023-4.794998-.541796-1.621065-1.068534-3.211807-1.58023-4.772272-.511696-1.560465-.970711-2.954258-1.377058-4.18142-.406347-1.227162-.737439-2.219481-.993287-2.976989-.255848-.757507-.383771-1.151405-.383771-1.181705-.060199-.212102-.188121-.303002-.38377-.272702-.195648.030301-.32357.13635-.38377.318152-.0301.0606-.210695.613573-.541793 1.658933-.331097 1.04536-.752488 2.378553-1.264184 3.999619-.511696 1.621065-1.083583 3.423906-1.715678 5.408575-.632095 1.984669-1.256656 3.946584-1.873702 5.885803-.617045 1.939219-1.188932 3.757209-1.715678 5.454025-.526746 1.696817-.955661 3.06031-1.286759 4.09052zm-81.1710364-24.473808c-.9750033 15.60909-2.5239771 28.901743-4.6469681 39.878357-2.122991 10.976614-4.7884841 19.919515-7.9965593 26.828972-3.2080752 6.909456-6.9507735 11.942292-11.2282072 15.098657-4.2774336 3.156366-9.058023 4.734525-14.3419116 4.734525-2.7362995 0-5.0322405-.471092-6.88789182-1.413291-1.85565136-.942199-3.34958555-2.167039-4.48184739-3.674556-1.13226185-1.507518-1.94213144-3.195599-2.42963307-5.064293-.48750162-1.868694-.73124878-3.713805-.73124878-5.535389 0-.471099.14939342-.785161.44818474-.942194.29879132-.157033.62116659-.062814.96713549.282658.37742061.37688.75483557.714496 1.13225618 1.012859.37742062.298363.82560088.557463 1.34455422.77731.51895335.219846 1.13225265.384728 1.8399163.494652.70766366.109923 1.56471011.164884 2.57116509.164884 2.64194434 0 5.25239774-.738045 7.83143864-2.214156 2.5790408-1.476111 5.0951405-3.493956 7.5483745-6.053596s4.8042147-5.566778 7.0530125-9.021507c2.2487978-3.454728 4.3481685-7.152802 6.298175-11.094333 1.9500065-3.941531 3.727002-8.040034 5.3310396-12.295631 1.6040376-4.255597 2.9721668-8.471872 4.1044286-12.648953 1.1322619-4.177081 2.005034-8.212771 2.6183425-12.107192.6133085-3.894421.9199581-7.459019.9199581-10.693901 0-.973605-.1493934-1.837274-.4481847-2.591033-.2987913-.753759-.6840691-1.397585-1.1558449-1.931497-.4717758-.533913-1.0064469-.981451-1.6040296-1.342627-.5975826-.361176-1.1872935-.667386-1.7691503-.918639-.5818567-.251253-1.1401164-.447541-1.6747956-.588871s-.9749966-.259103-1.3209655-.353323c-.2830655-.09422-.4953614-.219844-.6368941-.376877-.1415328-.157033-.2044352-.321916-.1887094-.494652.0157259-.172737.1022168-.321916.2594754-.447542.1572586-.125627.3931429-.188439.7076601-.188439h21.9846409c.4403241 0 .8334646.094218 1.1794335.282658.3459689.18844.5661277.471095.6604828.847975.220162.785165.5032233 1.860826.8491922 3.227014.3459688 1.366188.7469722 2.905089 1.2030221 4.61675.45605 1.711661.9278186 3.533218 1.4153203 5.464725.4875016 1.931507.9749959 3.855134 1.4624975 5.770937.4875017 1.915804.9671332 3.768767 1.4389089 5.558945.4717758 1.790177.8885048 3.407594 1.2501996 4.852298l1.3445542 5.370506c.0629034.157033.1572572.2434.2830641.259103.1258068.015703.2201606-.054961.283064-.211994.0629034-.157033.2830622-.698789.6604828-1.625284.3774206-.926496.8491893-2.096375 1.4153202-3.509673l1.934271-4.828743c.7233895-1.805881 1.4703566-3.682399 2.2409237-5.629609.7705671-1.947211 1.5411226-3.902243 2.3116897-5.865157.7705671-1.962914 1.5018086-3.808025 2.1937463-5.535389.6919378-1.727365 1.3131-3.281969 1.863505-4.66386.5504051-1.381892.9828597-2.465404 1.2973769-3.250569.3145172-.753759.9592677-1.130633 1.934271-1.130633h20.8523851c.314517 0 .550401.070664.70766.211994.157258.141329.243749.29836.259475.471097.015726.172736-.047177.34547-.188709.518206-.141533.172737-.353829.274807-.636894.306213-.377421.062814-.974995.204141-1.792739.423988-.817745.219846-1.64334.588868-2.476811 1.107077-.83347.51821-1.564712 1.240551-2.193746 2.167046-.629034.926496-.943547 2.112078-.943547 3.556782v46.073283c0 1.476111.314513 2.669545.943547 3.580337.629034.910792 1.360276 1.633133 2.193746 2.167046.833471.533912 1.659066.902934 2.476811 1.107077.817744.204144 1.415318.33762 1.792739.400433.283065.062813.495361.172735.636894.329768.141532.157033.204435.321915.188709.494652-.015726.172736-.102217.329767-.259475.471097-.157259.141329-.393143.211993-.70766.211993H82.931362c-.3145171 0-.5504015-.070664-.7076601-.211993-.1572586-.14133-.2437495-.298361-.2594754-.471097-.0157258-.172737.0471767-.337619.1887094-.494652.1415327-.157033.3538287-.266955.6368941-.329768.3774206-.062813.9749943-.196289 1.792739-.400433.8177446-.204143 1.6433399-.573165 2.4768104-1.107077.8334705-.533913 1.564712-1.256254 2.1937463-2.167046.6290344-.910792.9435469-2.104226.9435469-3.580337v-43.670688c0-.219846-.086491-.369026-.2594754-.447542-.1729845-.078517-.3381035.039256-.4953621.353322-.0629034.125627-.2987878.698789-.7076601 1.719504-.4088723 1.020716-.9435435 2.37118-1.6040296 4.051434-.6604861 1.680254-1.4310416 3.611733-2.3116897 5.794493-.8806481 2.18276-1.8084599 4.498963-2.7834631 6.94868-.9750033 2.449716-1.9735804 4.962208-2.9957612 7.537551-1.0221808 2.575343-2.0207579 5.079984-2.9957611 7.513997-.9750033 2.434013-1.8949523 4.734513-2.7598745 6.90157-.8649222 2.167057-1.627615 4.074981-2.288101 5.723828-.6604861 1.648848-1.1951573 2.960054-1.6040296 3.93366-.4088724.973605-.6290311 1.491806-.6604828 1.55462-.1887103.314066-.4324575.471097-.7312488.471097-.2987913 0-.5268128-.157031-.6840714-.471097-.0314518-.062814-.2358849-.816561-.6133055-2.261266-.3774206-1.444704-.8649149-3.329073-1.4624975-5.653163-.5975827-2.32409-1.2737845-4.962207-2.0286257-7.914429s-1.5253968-5.967213-2.3116897-9.045062c-.786293-3.077849-1.5568485-6.10069-2.3116897-9.068616-.7548413-2.967926-1.431043-5.637448-2.0286257-8.008648-.5975826-2.3712-1.0929398-4.302678-1.4860862-5.794493-.3931465-1.491814-.621168-2.316226-.6840715-2.473259-.0943551-.251253-.2516114-.376878-.4717734-.376878-.220162 0-.345967.188437-.3774187.565317zM356.630401 141.882875c.770927-.164905 1.376646-.013744 1.817176.453489.440529.467232.468062 1.085619.082598 1.855179-.330397.604655-.867284 1.319235-1.610678 2.143764-.743393.824528-1.73457 1.594076-2.973559 2.308668-1.23899.714591-2.753287 1.319236-4.542938 1.813953-1.789652.494717-3.895902.742072-6.318814.742072-3.359038 0-6.181138-.673355-8.466385-2.020085-2.285247-1.346729-3.868377-2.899568-4.749436-4.658562-.220264-.439748-.53689-.632136-.949887-.577167-.412996.054969-.757155.219872-1.032486.494715-.165198.164905-.674553.618389-1.528079 1.360465-.853526.742075-2.064964 1.539108-3.634351 2.39112-1.569386.852013-3.455375 1.263072-5.658023 1.950179-2.202647.687107-4.735654 1.030656-7.599096 1.030656-4.900891 0-9.017028-.687097-12.348532-2.061311-3.331505-1.374214-6.029708-2.788435-8.09469-4.959693-2.064982-2.171258-3.551747-4.617322-4.46034-7.338266-.908592-2.720944-1.362881-5.428105-1.362881-8.121565 0-4.342516 1.225204-8.13529 3.67565-11.378435 2.450446-3.243145 5.630471-5.661726 9.54017-7.255814 2.092516-.824529 4.281364-1.415432 6.566611-1.772727 2.285247-.357296 4.556693-.728328 6.814407-1.113108s4.474095-.865748 6.64921-1.442918c2.175114-.57717 4.226299-1.525363 6.153616-2.844609 2.037449-1.374214 3.455382-3.1331814 4.253842-5.2769553.79846-2.143774 1.197684-4.4249351 1.197684-6.8435518 0-1.758994-.234028-3.449252-.70209-5.0708246-.468063-1.6215725-1.128847-3.0369918-1.982373-4.2463002-.853526-1.2093083-1.844703-2.1712438-2.97356-2.8858351-1.128857-.7145913-2.354061-1.0718816-3.67565-1.0718816-2.367846 0-4.102405.6046451-5.203729 1.8139535-1.101324 1.2093084-1.968604 2.6659534-2.601865 4.3699789-.633261 1.7040254-1.225214 3.476735-1.775876 5.3181818-.550662 1.8414468-1.431708 3.4217693-2.643164 4.7410148-.991191 1.0444027-2.271461 1.8276929-3.840848 2.3498943-1.569386.5222013-3.069917.7832981-4.501638.7832981-1.486788 0-2.808356-.2473548-3.964746-.7420719s-2.147567-1.1680719-2.97356-2.0200846c-.825993-.8520127-1.445478-1.841432-1.858475-2.9682875-.412996-1.1268555-.619491-2.3224038-.619491-3.5866808 0-1.7040254.41299-3.4080253 1.238983-5.1120507.825993-1.7040254 2.298991-3.2431221 4.41904-4.6173361 2.120048-1.3742141 4.969681-2.4873108 8.548984-3.3393235C306.520434 73.626 311.063327 73.2 316.569946 73.2c6.112348 0 11.329791.6183871 15.652487 1.8551797 4.322696 1.2367927 7.84688 3.0369861 10.572656 5.4006343 2.725777 2.3636481 4.70813 5.2906802 5.94712 8.7811839 1.238989 3.4905037 1.858474 7.4619228 1.858474 11.9143761 0 5.331951-.165196 10.334015-.495593 15.006343-.330397 4.672328-.564425 8.80865-.70209 12.409091-.137666 3.60044-.068834 6.568698.206497 8.904862.275331 2.336164 1.046246 3.779067 2.312768 4.328753.550662.274843 1.238979.39852 2.064972.371036.825993-.027485 1.707039-.123678 2.643164-.288584zm-28.66181-36.856237c0-.329811-.137663-.549682-.412994-.659619-.275331-.109937-.523125-.027485-.74339.247357-.44053.494717-.839754.961943-1.197684 1.401692-.35793.439748-.839752.961942-1.44548 1.566596-1.046258 1.099371-2.120033 2.130016-3.221356 3.091966-1.101324.96195-2.202632 1.937627-3.303955 2.927061-1.101324.879497-2.188865 1.758981-3.262656 2.638478-1.073791.879497-2.078734 1.841433-3.014859 2.885835-1.431721 1.649057-2.491729 3.449251-3.180057 5.400634-.688327 1.951384-1.032486 4.026417-1.032486 6.225159 0 1.484151.220262 2.982022.660791 4.493658.44053 1.511635 1.115081 2.858345 2.023673 4.040169.908592 1.181824 2.064965 2.143759 3.469153 2.885835 1.404187.742075 3.097447 1.113108 5.07983 1.113108 1.982383 0 3.593045-.412258 4.832035-1.236787 1.238989-.824528 2.202633-1.813948 2.89096-2.968287.688328-1.15434 1.17015-2.322405 1.445481-3.504229.275331-1.181824.412994-2.102533.412994-2.762156v-27.78647zm-65.473798 32.696246c0 2.273928.484602 4.104135 1.453821 5.490677.969219 1.386541 2.076881 2.481893 3.32302 3.286087 1.246139.804194 2.464567 1.372667 3.655322 1.705437 1.190755.33277 2.248454.526883 2.691526.582345.443071.110923.761524.291171.955368.540748.193844.249578.263072.513017.207689.790325-.055384.277308-.207688.526882-.456916.748729-.249227.221846-.595372.332768-1.038443.332768h-43.77236c-.443071 0-.789216-.110922-1.038443-.332768-.249228-.221847-.401532-.471421-.456916-.748729-.055383-.277308.013845-.540747.207689-.790325.193844-.249577.512297-.429825.955368-.540748.443072-.055462 1.259973-.249575 2.450728-.582345 1.190754-.33277 2.409183-.901243 3.655322-1.705437 1.246138-.804194 2.3538-1.899546 3.323019-3.286087.969219-1.386542 1.453822-3.216749 1.453822-5.490677V44.4645654c0-.7210016-.332299-1.1646882-.996906-1.3310732-.110768 0-.512296-.0831912-1.204595-.2495762-.692299-.166385-1.481509-.3604979-2.367652-.5823446-.886143-.2218466-1.703044-.4159595-2.450727-.5823445-.747683-.166385-1.204594-.2773067-1.370746-.3327683-.719991-.166385-1.093827-.5407456-1.121519-1.1230931-.027692-.5823474.373836-.9844384 1.204595-1.2062851 2.159974-.4991549 4.49991-1.1785501 7.019879-2.0382058 2.51997-.8596558 5.053747-1.8302203 7.601408-2.9117227 2.547662-1.0815024 5.01221-2.2461799 7.39372-3.4940673 2.381509-1.2478874 4.513759-2.5096212 6.396813-3.7852395.498456-.3327699 1.010749-.471422 1.536897-.4159603.526147.0554616.789217.4714178.789217 1.2478811V137.722884zM180.825 73.2c5.665028 0 10.876226.9989374 15.63375 2.9968421 4.757524 1.9979047 8.841233 4.7347195 12.25125 8.2105263 3.410017 3.4758069 6.07749 7.5673449 8.0025 12.2747369 1.92501 4.7073917 2.8875 9.7431307 2.8875 15.1073687 0 5.418974-1.04499 10.50945-3.135 15.271579-2.09001 4.762129-4.949982 8.935771-8.58 12.521052-3.630018 3.585281-7.906225 6.417885-12.82875 8.497895-4.922525 2.08001-10.216222 3.12-15.88125 3.12-5.665028 0-10.876226-.998937-15.63375-2.996842-4.757524-1.997905-8.841233-4.73472-12.25125-8.210526-3.410017-3.475807-6.07749-7.553661-8.0025-12.233685-1.92501-4.680023-2.8875-9.729446-2.8875-15.148421 0-5.364237 1.04499-10.441028 3.135-15.230526 2.09001-4.7894976 4.949982-8.9768242 8.58-12.5621053 3.630018-3.585281 7.906225-6.4178843 12.82875-8.4978947 4.922525-2.0800104 10.216222-3.12 15.88125-3.12zM180 146.848421c2.640013 0 4.93624-.903149 6.88875-2.709474 1.95251-1.806324 3.574994-4.283142 4.8675-7.430526 1.292506-3.147384 2.268747-6.8284 2.92875-11.043158.660003-4.214758.99-8.703134.99-13.465263s-.329997-9.250505-.99-13.4652632c-.660003-4.2147579-1.636244-7.8957737-2.92875-11.0431579-1.292506-3.1473841-2.91499-5.6242014-4.8675-7.4305263-1.95251-1.8063248-4.248737-2.7094737-6.88875-2.7094737-2.640013 0-4.93624.9031489-6.88875 2.7094737-1.95251 1.8063249-3.588743 4.2831422-4.90875 7.4305263-1.320007 3.1473842-2.296247 6.8284-2.92875 11.0431579-.632503 4.2147582-.94875 8.7031342-.94875 13.4652632 0 4.762129.316247 9.250505.94875 13.465263s1.608743 7.895774 2.92875 11.043158c1.320007 3.147384 2.95624 5.624202 4.90875 7.430526 1.95251 1.806325 4.248737 2.709474 6.88875 2.709474zm-50.635702-21.463848c.329465-.874178.851109-1.270284 1.564948-1.18833.713839.081954 1.070754.560013 1.070754 1.434191v24.012445c0 1.038086-.576554 1.557121-1.729679 1.557121H43.6926144c-.5491071 0-.9609313-.12293-1.2354849-.368792-.2745536-.245863-.4255558-.519038-.4530112-.819537-.0274553-.300498.0823645-.587335.3294627-.860515s.61774-.464403 1.1119364-.573676c.6589286-.109272 1.7022166-.341472 3.1298952-.696607 1.4276786-.355134 2.8690633-.997099 4.3241973-1.925912 1.4551339-.928814 2.7317889-2.185425 3.8300032-3.769872 1.0982144-1.584447 1.6473133-3.660587 1.6473133-6.228484V54.8433954c0-2.5132606-.5490989-4.5757424-1.6473133-6.1875073-1.0982143-1.6117649-2.3748693-2.8683763-3.8300032-3.769872-1.455134-.9014956-2.8965187-1.5434601-4.3241973-1.9259128-1.4276786-.3824527-2.4709666-.6283115-3.1298952-.7375837-.4941964-.0546361-.8648382-.2322007-1.1119364-.5326993-.2470982-.3004985-.356918-.6009925-.3294627-.9014911.0274554-.3004985.1784576-.5736749.4530112-.8195374.2745536-.2458624.6863778-.3687918 1.2354849-.3687918h52.5492924c.5491072 0 .9609314.1229294 1.235485.3687918.2745536.2458625.4255558.5190389.4530111.8195374.0274554.3004986-.0823644.6009926-.3294626.9014911-.2470983.3004986-.61774.4780632-1.1119365.5326993-.6589286.1092722-1.7022165.355131-3.1298951.7375837-1.4276786.3824527-2.8690633 1.0244172-4.3241973 1.9259128-1.455134.9014957-2.731789 2.1581071-3.8300033 3.769872-1.0982143 1.6117649-1.6473132 3.6742467-1.6473132 6.1875073v85.4567576c0 1.311266.1784571 2.362995.5353768 3.155219.3569196.792223 1.0432933 1.393211 2.0591415 1.802982 1.0158483.40977 2.4435055.682947 4.2830145.819537s6.6418168.204885 9.6069953.204885c3.569197 0 6.740243-.450742 9.513234-1.352237 2.772991-.901496 5.216482-2.035177 7.330545-3.40108 2.114062-1.365902 3.912361-2.89569 5.39495-4.589409 1.482589-1.693719 2.718062-3.30546 3.706454-4.835271.988393-1.529811 1.743405-2.909352 2.265057-4.138664.521652-1.229312.892293-2.089817 1.111935-2.581542z"/>
    <g fill="#4FD053">
      <path d="M424.997073 4.70746288c-9.27236 3.81508738-17.779905 9.27883072-25.1120569 16.12754782-5.5847464 6.8570774-13.8280394 10.9951432-22.6526285 11.3714345-4.9321751-.4656227-9.4268747-3.0326025-12.340289-7.0476952-6.0407009-5.058775-11.5636274-6.7882708-16.2667446-5.4479116-4.6217545 1.3049718-8.1428888 5.0664225-9.1473471 9.771651-.851486 3.3942059-2.9664366 6.3334353-5.9112573 8.2151048-7.9615839 5.3292448-16.2317444 10.1803593-24.76687374 14.5277642-1.51017523.9512227-2.15739319 1.9456827-1.03554873 2.5077688 9.85560017-6.4759874 20.59606087-11.4859805 31.88627127-14.8736634 2.0279496 0 11.7793668 0 14.0662035 8.3880544 1.2512881 10.333737 8.88846 21.6186968 20.9698618 34.3737279 4.3147864 7.8692056.9924009 11.5011466.6903658 12.0632328-5.6523701 8.4312921-10.7006702 20.3648121-5.8681095 20.3648121 1.379416-1.232995 2.2297301-2.952645 2.3731325-4.79935v-.821511c.0338444.272787.0338444.548724 0 .821511-1.1806059 4.138429-.6519881 8.578683 1.4670274 12.322657 6.1701445-.389137.3883308-15.824886 5.0051522-22.0943084 3.0429214-3.6301281 5.7169411-7.5553333 7.9823548-11.7173337 6.6998339-12.7164198 6.9720934-27.866195.7335137-40.8160995 14.2819428 7.3935943 22.9978114-6.1829472 30.2035044-22.9590559 5.484964-3.5635033 10.255845-8.1243099 14.066204-13.4468294 0 0 13.764168-7.30711955 13.764168-9.68517619 0-2.37805665-11.261592-.82151048-20.106904 2.85366797z"/>
      <path d="M434.252875 22.1762047c-9.940532.6298957-19.689184 3.029142-28.7881338 7.0850643-7.4551351 4.7393092-16.5692199 6.0896633-25.0763207 3.7153386-2.0285492-1.4256532 1.0790155 14.688548 4.5318652 17.9718705 11.3512433 11.3620239 23.8246623 1.2960483 36.0391183-12.1828545 6.32108-1.6439855 12.279049-4.4572938 17.566373-8.2947095 0 0 15.365181-2.5920967 16.098911-4.8385805.733731-2.2464838-10.617512-4.1905563-20.371813-3.4561289z" opacity=".5"/>
      <path d="M438.687681 44.7327448c-9.294419-3.5887227-19.15655-5.5080135-29.126649-5.6684007-8.8701613 1.0891155-17.7926749-1.575454-24.5891148-7.3431555-1.2532237-2.1471214-5.4450412 13.698635-3.7164567 18.1217053 5.4882559 15.0298503 21.3048042 11.1650316 38.2881475 4.2942429 6.397872 1.1894981 12.962274 1.1894981 19.360146 0 0 0 14.822613 4.0365884 16.421553 2.3618336 1.598941-1.6747547-7.821845-8.4596586-16.637626-11.7662256z" opacity=".8"/>
    </g>
  </g>
</svg>
